<svg width="28" height="28" viewBox="0 0 28 28" fill="none" xmlns="http://www.w3.org/2000/svg">
<path fill-rule="evenodd" clip-rule="evenodd" d="M3.33333 6.88882C3.33333 6.39831 3.75903 6 4.2831 6H16.7172C17.2412 6 17.6667 6.39831 17.6667 6.88882C17.6667 7.37933 17.2412 7.77778 16.7172 7.77778H4.2831C3.75903 7.77778 3.33333 7.37933 3.33333 6.88882ZM3.33333 14.0001C3.33333 13.5096 3.75904 13.1111 4.28311 13.1111H23.7172C24.2412 13.1111 24.6667 13.5096 24.6667 14.0001C24.6667 14.4906 24.2412 14.8889 23.7172 14.8889H4.28311C3.75904 14.8889 3.33333 14.4906 3.33333 14.0001ZM4.28311 20.2222C3.75904 20.2222 3.33333 20.6205 3.33333 21.111C3.33333 21.6016 3.75904 22 4.28311 22H16.7172C17.2412 22 17.6667 21.6016 17.6667 21.111C17.6667 20.6205 17.2412 20.2222 16.7172 20.2222H4.28311Z" fill="white"/>
<path d="M4.2831 5.5C3.51468 5.5 2.83333 6.09142 2.83333 6.88882H3.83333C3.83333 6.7052 4.00339 6.5 4.2831 6.5V5.5ZM16.7172 5.5H4.2831V6.5H16.7172V5.5ZM18.1667 6.88882C18.1667 6.09161 17.4858 5.5 16.7172 5.5V6.5C16.9967 6.5 17.1667 6.70501 17.1667 6.88882H18.1667ZM16.7172 8.27778C17.4859 8.27778 18.1667 7.68594 18.1667 6.88882H17.1667C17.1667 7.07273 16.9966 7.27778 16.7172 7.27778V8.27778ZM4.2831 8.27778H16.7172V7.27778H4.2831V8.27778ZM2.83333 6.88882C2.83333 7.68613 3.51458 8.27778 4.2831 8.27778V7.27778C4.00349 7.27778 3.83333 7.07254 3.83333 6.88882H2.83333ZM4.28311 12.6111C3.51458 12.6111 2.83333 13.2028 2.83333 14.0001H3.83333C3.83333 13.8164 4.0035 13.6111 4.28311 13.6111V12.6111ZM23.7172 12.6111H4.28311V13.6111H23.7172V12.6111ZM25.1667 14.0001C25.1667 13.2029 24.4859 12.6111 23.7172 12.6111V13.6111C23.9966 13.6111 24.1667 13.8162 24.1667 14.0001H25.1667ZM23.7172 15.3889C24.4858 15.3889 25.1667 14.7973 25.1667 14.0001H24.1667C24.1667 14.1839 23.9967 14.3889 23.7172 14.3889V15.3889ZM4.28311 15.3889H23.7172V14.3889H4.28311V15.3889ZM2.83333 14.0001C2.83333 14.7975 3.51468 15.3889 4.28311 15.3889V14.3889C4.0034 14.3889 3.83333 14.1837 3.83333 14.0001H2.83333ZM3.83333 21.111C3.83333 20.9274 4.0034 20.7222 4.28311 20.7222V19.7222C3.51468 19.7222 2.83333 20.3136 2.83333 21.111H3.83333ZM4.28311 21.5C4.0035 21.5 3.83333 21.2948 3.83333 21.111H2.83333C2.83333 21.9084 3.51458 22.5 4.28311 22.5V21.5ZM16.7172 21.5H4.28311V22.5H16.7172V21.5ZM17.1667 21.111C17.1667 21.2949 16.9966 21.5 16.7172 21.5V22.5C17.4859 22.5 18.1667 21.9082 18.1667 21.111H17.1667ZM16.7172 20.7222C16.9967 20.7222 17.1667 20.9272 17.1667 21.111H18.1667C18.1667 20.3138 17.4858 19.7222 16.7172 19.7222V20.7222ZM4.28311 20.7222H16.7172V19.7222H4.28311V20.7222Z" fill="white"/>
</svg>
